<?xml version="1.0" encoding="UTF-8"?>
<svg id="Layer_1" data-name="Layer 1" xmlns="http://www.w3.org/2000/svg" viewBox="0 0 458.54 458.54">
  <defs>
    <style>
      .cls-1 {
        fill: #fff;
      }

      .cls-2 {
        fill: #86bbd8;
        fill-rule: evenodd;
      }
    </style>
  </defs>
  <circle class="cls-1" cx="229.27" cy="222.41" r="190.55"/>
  <path class="cls-2" d="M458.54,229.27c0,126.62-102.65,229.27-229.27,229.27S0,355.89,0,229.27,102.65,0,229.27,0s229.27,102.65,229.27,229.27Zm-104.47,127.37c-32.16,31.52-76.21,50.95-124.8,50.95s-92.64-19.43-124.8-50.95h249.6Zm36.36-50.95c11-23.16,17.16-49.07,17.16-76.42,0-98.48-79.84-178.32-178.32-178.32S50.95,130.79,50.95,229.27c0,27.35,6.16,53.26,17.16,76.42H390.43Z"/>
  <path class="cls-2" d="M155.2,356.71c-20.45,0-37.03-16.58-37.03-37.03v-123.45c0-.42,.02-.83,.06-1.24h-.06c0-7.11,2.82-13.93,7.85-18.96l77.06-77.06c14.46-14.46,37.91-14.46,52.37,0l77.06,77.06c5.03,5.03,7.85,11.85,7.85,18.96h-.06c.04,.41,.06,.82,.06,1.24v123.45c0,20.45-16.58,37.03-37.03,37.03H155.2ZM238,116.43l77.68,77.68v125.56c0,6.82-5.53,12.34-12.34,12.34h-37.03v-61.72c0-20.45-16.58-37.03-37.03-37.03s-37.03,16.58-37.03,37.03v61.72h-37.03c-6.82,0-12.34-5.53-12.34-12.34v-125.56l77.68-77.68c4.82-4.82,12.64-4.82,17.46,0Z"/>
</svg>